<?xml version="1.0" encoding="UTF-8"?><svg xmlns="http://www.w3.org/2000/svg" xmlns:xlink="http://www.w3.org/1999/xlink" viewBox="0 0 418.84 667.58"><defs><style>.cls-1{fill:url(#Unbenannter_Verlauf_136-2);}.cls-2{fill:url(#Unbenannter_Verlauf_119-2);}.cls-3{fill:url(#Unbenannter_Verlauf_1535-2);}.cls-4{fill:url(#Unbenannter_Verlauf_1146-2);}.cls-5{fill:url(#Unbenannter_Verlauf_50-2);}.cls-6{fill:url(#Unbenannter_Verlauf_1146);}.cls-7{fill:url(#Unbenannter_Verlauf_1535);}.cls-8{fill:url(#linear-gradient);}.cls-8,.cls-9,.cls-10{mix-blend-mode:multiply;opacity:.36;}.cls-9{fill:url(#linear-gradient-8);}.cls-10{fill:url(#linear-gradient-4);}.cls-11{fill:url(#linear-gradient-3);}.cls-12{fill:url(#linear-gradient-2);}.cls-13{fill:url(#linear-gradient-6);}.cls-14{fill:url(#linear-gradient-7);}.cls-15{fill:url(#linear-gradient-5);}.cls-16{fill:url(#Unbenannter_Verlauf_119);}.cls-17{fill:url(#Unbenannter_Verlauf_136);}.cls-18{fill:url(#Unbenannter_Verlauf_50);}.cls-19{isolation:isolate;}</style><linearGradient id="Unbenannter_Verlauf_119" x1="2403.43" y1="-2249.14" x2="2166.44" y2="-2050.23" gradientTransform="translate(2216.23 -2123.46) rotate(87.06) scale(1 -1) skewX(2.93)" gradientUnits="userSpaceOnUse"><stop offset="0" stop-color="#573085"/><stop offset=".46" stop-color="#7a3677"/><stop offset="1" stop-color="#a2006d"/></linearGradient><linearGradient id="Unbenannter_Verlauf_50" x1="82.7" y1="171.16" x2="288.91" y2="171.16" gradientUnits="userSpaceOnUse"><stop offset="0" stop-color="#57008b"/><stop offset="1" stop-color="#8f356d"/></linearGradient><linearGradient id="linear-gradient" x1="2412.89" y1="-2048.38" x2="2325.63" y2="-1979.62" gradientTransform="translate(2123.46 -2123.46) rotate(90) scale(1 -1)" gradientUnits="userSpaceOnUse"><stop offset="0" stop-color="#006830"/><stop offset=".31" stop-color="#00883a"/><stop offset="1" stop-color="#68bd38"/></linearGradient><linearGradient id="Unbenannter_Verlauf_1535" x1="2560.83" y1="-2111.6" x2="2325.4" y2="-2385.33" gradientTransform="translate(2216.23 -2123.46) rotate(87.06) scale(1 -1) skewX(2.93)" gradientUnits="userSpaceOnUse"><stop offset="0" stop-color="#c50000"/><stop offset=".12" stop-color="#ce1a03"/><stop offset=".42" stop-color="#e3550a"/><stop offset=".68" stop-color="#f27f10"/><stop offset=".88" stop-color="#fb9a13"/><stop offset="1" stop-color="#ffa415"/></linearGradient><linearGradient id="Unbenannter_Verlauf_136" x1="212.56" y1="525.75" x2="-1.93" y2="327.11" gradientUnits="userSpaceOnUse"><stop offset="0" stop-color="#f13930"/><stop offset=".68" stop-color="#f4832c"/><stop offset="1" stop-color="#f7b91b"/></linearGradient><linearGradient id="Unbenannter_Verlauf_1146" x1="205.24" y1="432.32" x2="2.07" y2="196.11" gradientUnits="userSpaceOnUse"><stop offset="0" stop-color="#e98f00"/><stop offset="1" stop-color="#ffbe15"/></linearGradient><linearGradient id="linear-gradient-2" x1="-1970.25" y1="-2169.22" x2="-2207.25" y2="-1970.32" gradientTransform="translate(-1941.84 -1582.64) rotate(-92.94) scale(1 -1) skewX(2.93)" gradientUnits="userSpaceOnUse"><stop offset="0" stop-color="#387930"/><stop offset=".46" stop-color="#329d0a"/><stop offset="1" stop-color="#acd438"/></linearGradient><linearGradient id="linear-gradient-3" x1="-1969.65" y1="-2150.85" x2="-2194.61" y2="-1973.59" gradientTransform="translate(-1849.08 -1582.64) rotate(-90) scale(1 -1)" gradientUnits="userSpaceOnUse"><stop offset="0" stop-color="#006812"/><stop offset="1" stop-color="#6ab32e"/></linearGradient><linearGradient id="linear-gradient-4" x1="-1960.79" y1="-2192.84" x2="-2048.05" y2="-2124.08" gradientTransform="translate(-1849.08 -1582.64) rotate(-90) scale(1 -1)" xlink:href="#linear-gradient"/><linearGradient id="linear-gradient-5" x1="-1812.85" y1="-2031.69" x2="-2048.28" y2="-2305.41" gradientTransform="translate(-1941.84 -1582.64) rotate(-92.94) scale(1 -1) skewX(2.93)" gradientUnits="userSpaceOnUse"><stop offset="0" stop-color="#86b517"/><stop offset=".68" stop-color="#d7df23"/><stop offset="1" stop-color="#f9ed32"/></linearGradient><linearGradient id="linear-gradient-6" x1="68.11" y1="-3847.93" x2="-146.38" y2="-4046.57" gradientTransform="translate(274.39 -3706.1) rotate(-180)" xlink:href="#linear-gradient-5"/><linearGradient id="linear-gradient-7" x1="78.88" y1="-3920.32" x2="-175.81" y2="-4216.44" gradientTransform="translate(274.39 -3706.1) rotate(-180)" gradientUnits="userSpaceOnUse"><stop offset="0" stop-color="#d7df23"/><stop offset="1" stop-color="#ffff32"/></linearGradient><linearGradient id="Unbenannter_Verlauf_119-2" x1="2390.24" y1="-2364.21" x2="2153.24" y2="-2165.3" gradientTransform="translate(-1913.13 2777.85) rotate(-92.94) scale(1 -1) skewX(2.93)" xlink:href="#Unbenannter_Verlauf_119"/><linearGradient id="Unbenannter_Verlauf_50-2" x1="-33.05" y1="157.97" x2="173.17" y2="157.97" gradientTransform="translate(303.1 654.39) rotate(-180)" xlink:href="#Unbenannter_Verlauf_50"/><linearGradient id="linear-gradient-8" x1="2399.7" y1="-2164.12" x2="2312.44" y2="-2095.37" gradientTransform="translate(-1820.36 2777.85) rotate(-90) scale(1 -1)" xlink:href="#linear-gradient"/><linearGradient id="Unbenannter_Verlauf_1535-2" x1="2547.64" y1="-2226.67" x2="2312.21" y2="-2500.39" gradientTransform="translate(-1913.13 2777.85) rotate(-92.94) scale(1 -1) skewX(2.93)" xlink:href="#Unbenannter_Verlauf_1535"/><linearGradient id="Unbenannter_Verlauf_136-2" x1="96.82" y1="512.56" x2="-117.67" y2="313.92" gradientTransform="translate(303.1 654.39) rotate(-180)" xlink:href="#Unbenannter_Verlauf_136"/><linearGradient id="Unbenannter_Verlauf_1146-2" x1="89.49" y1="419.13" x2="-113.67" y2="182.92" gradientTransform="translate(303.1 654.39) rotate(-180)" xlink:href="#Unbenannter_Verlauf_1146"/></defs><g class="cls-19"><g id="Ebene_2"><g id="Layer_1"><path class="cls-16" d="m64.06,142.81C163.53,53.91,228.86,0,228.86,0c0,0,112.56,73.48,29.46,150.38-89.16,82.52-163.9,125.28-103.5,170.44,92.39,69.09-120.16-50.33-120.16-50.33,0,0-24.7-79.78,29.39-127.68Z"/><path class="cls-18" d="m258.33,150.38c-89.16,82.52-163.9,125.28-103.5,170.44,48.87,36.54,12.42,20.34-32.76-3.03-9.39-11.29-17.93-22.02-25.07-30.28-29.41-34.05-15.05-81.34,57.78-131.46C227.6,105.92,288.13,40.67,228.86,0c0,0,112.56,73.48,29.46,150.38Z"/><path class="cls-8" d="m34.67,270.49s-24.7-79.78,29.39-127.68c1.05-.94,2.08-1.85,3.13-2.79-60.04,53.15,54.03,147.48,83.01,109.95h0c-22,26.49-25.42,48.37,4.64,70.85,3.75,2.8,6.94,5.26,9.72,7.46.21,3.43.35,6.86.41,10.28-35.42-14.78-130.29-68.08-130.29-68.08Z"/><path class="cls-7" d="m220.06,363.17C103.04,288.98-12.7,213.74,64.06,142.81c-44.77,37.59-46.28,79.52-53.42,120.11-14.65,83.23-27.1,125.39,55.94,187.26,69.82,52.02,69.77,41.99,119.22-2.01,48.42-43.08,65.55-65.15,34.26-85Z"/><path class="cls-17" d="m185.8,448.17c1.75-1.56,3.45-3.08,5.12-4.58C98.53,407.53,18.27,330.19,8.05,277.4c-13.21,73.85-19.56,114.6,58.52,172.78,69.82,52.02,69.77,41.99,119.22-2.01Z"/><path class="cls-6" d="m220.06,363.17C103.04,288.98-12.7,213.74,64.06,142.81c-11.73,9.85-20.48,19.99-27.15,30.33-27.61,62.92,73.78,128.63,176.15,193.53,31.3,19.84,14.17,41.91-34.26,85-16.55,14.72-27.55,25.63-37.49,31.7,11.99-4.56,23.99-16.96,44.49-35.2,48.42-43.08,65.55-65.15,34.26-85Z"/><path class="cls-12" d="m354.79,524.77c-99.48,88.9-164.81,142.81-164.81,142.81,0,0-112.56-73.48-29.46-150.38,89.16-82.52,163.9-125.28,103.5-170.44-92.39-69.09,120.16,50.33,120.16,50.33,0,0,24.7,79.78-29.39,127.68Z"/><path class="cls-11" d="m160.52,517.21c89.16-82.52,163.9-125.28,103.5-170.44-48.87-36.54-12.42-20.34,32.77,3.03,9.39,11.29,17.93,22.02,25.07,30.28,29.41,34.05,15.05,81.34-57.78,131.46-72.82,50.13-133.35,115.38-74.09,156.05,0,0-112.56-73.48-29.46-150.38Z"/><path class="cls-10" d="m384.18,397.09s24.7,79.78-29.39,127.68c-1.05.94-2.08,1.85-3.12,2.79,60.04-53.15-54.03-147.48-83.01-109.95h0c22-26.49,25.42-48.37-4.64-70.85-3.75-2.8-6.94-5.26-9.72-7.46-.21-3.43-.35-6.86-.41-10.28,35.42,14.78,130.29,68.08,130.29,68.08Z"/><path class="cls-15" d="m198.78,304.41c117.02,74.19,232.75,149.43,156,220.36,44.77-37.59,46.28-79.52,53.42-120.11,14.65-83.23,27.1-125.39-55.94-187.26-69.82-52.02-69.77-41.99-119.22,2.01-48.42,43.08-65.55,65.15-34.26,85Z"/><path class="cls-13" d="m233.04,219.41c-1.75,1.56-3.45,3.08-5.12,4.58,92.39,36.06,172.66,113.39,182.87,166.18,13.21-73.85,19.56-114.6-58.52-172.78-69.82-52.02-69.77-41.99-119.22,2.01Z"/><path class="cls-14" d="m198.78,304.41c117.02,74.19,232.75,149.43,156,220.36,11.72-9.85,20.48-19.99,27.15-30.33,27.61-62.92-73.78-128.63-176.15-193.53-31.3-19.84-14.17-41.91,34.26-85,16.55-14.72,27.55-25.63,37.49-31.7-11.99,4.56-23.99,16.96-44.49,35.2-48.42,43.08-65.55,65.15-34.26,85Z"/><path class="cls-2" d="m354.79,524.77c-99.48,88.9-164.81,142.81-164.81,142.81,0,0-112.56-73.48-29.46-150.38,89.16-82.52,163.9-125.28,103.5-170.44-92.39-69.09,120.16,50.33,120.16,50.33,0,0,24.7,79.78-29.39,127.68Z"/><path class="cls-5" d="m160.52,517.21c89.16-82.52,163.9-125.28,103.5-170.44-48.87-36.54-12.42-20.34,32.76,3.03,9.39,11.29,17.93,22.02,25.07,30.28,29.41,34.05,15.05,81.34-57.78,131.46-72.82,50.13-133.35,115.38-74.09,156.05,0,0-112.56-73.48-29.46-150.38Z"/><path class="cls-9" d="m384.18,397.09s24.7,79.78-29.39,127.68c-1.05.94-2.08,1.85-3.13,2.79,60.04-53.15-54.03-147.48-83.01-109.95h0c22-26.49,25.42-48.37-4.64-70.85-3.75-2.8-6.94-5.26-9.72-7.46-.21-3.43-.35-6.86-.41-10.28,35.42,14.78,130.29,68.08,130.29,68.08Z"/><path class="cls-3" d="m198.78,304.41c117.02,74.19,232.75,149.43,156,220.36,44.77-37.59,46.28-79.52,53.42-120.11,14.65-83.23,27.1-125.39-55.94-187.26-69.82-52.02-69.77-41.99-119.22,2.01-48.42,43.08-65.55,65.15-34.26,85Z"/><path class="cls-1" d="m233.04,219.41c-1.75,1.56-3.45,3.08-5.12,4.58,92.39,36.06,172.65,113.39,182.87,166.18,13.21-73.85,19.56-114.6-58.52-172.78-69.82-52.02-69.77-41.99-119.22,2.01Z"/><path class="cls-4" d="m198.78,304.41c117.02,74.19,232.75,149.43,156,220.36,11.73-9.85,20.48-19.99,27.15-30.33,27.61-62.92-73.78-128.63-176.15-193.53-31.3-19.84-14.17-41.91,34.26-85,16.55-14.72,27.55-25.63,37.49-31.7-11.99,4.56-23.99,16.96-44.49,35.2-48.42,43.08-65.55,65.15-34.26,85Z"/></g></g></g></svg>